<svg height="512" viewBox="0 0 64 64" width="512" xmlns="http://www.w3.org/2000/svg"><path d="m14 11v28a2.006 2.006 0 0 0 2 2h34a2.006 2.006 0 0 0 2-2v-28z" fill="#5aaae7"/><path d="m48 45a6.009 6.009 0 0 1 6 6v4a6 6 0 0 1 -12 0v-4a6 6 0 0 1 6-6z" fill="#ffde55"/><path d="m32 41h-16v-5a2.993 2.993 0 0 0 -.88-2.12 2.838 2.838 0 0 0 -1.12-.7 2.772 2.772 0 0 0 -1-.18 3 3 0 0 0 -3 3v15l3 4v6h21v-6l3-4v-10z" fill="#ffc477"/><path d="m14 11v-6a2.006 2.006 0 0 1 2-2h34a2.006 2.006 0 0 1 2 2v6z" fill="#ff5023"/><path d="m17 6h2v2h-2z"/><path d="m21 6h2v2h-2z"/><path d="m25 6h2v2h-2z"/><path d="m49 44.08v-2.08h1a3 3 0 0 0 3-3v-34a3 3 0 0 0 -3-3h-34a3 3 0 0 0 -3 3v27a4 4 0 0 0 -4 4v15a1 1 0 0 0 .2.6l2.8 3.733v5.667a1 1 0 0 0 1 1h21a1 1 0 0 0 1-1v-5.667l2.8-3.733a1 1 0 0 0 .2-.6v-9h9v2.08a7 7 0 0 0 -6 6.92v4a7 7 0 0 0 14 0v-4a7 7 0 0 0 -6-6.92zm-33-40.08h34a1 1 0 0 1 1 1v5h-36v-5a1 1 0 0 1 1-1zm-1 8h36v27a1 1 0 0 1 -1 1h-1.08a7 7 0 0 0 -6.92-6h-10a5.006 5.006 0 0 1 -5-5v-4h-2v4a7.008 7.008 0 0 0 7 7h10a5.009 5.009 0 0 1 4.9 4h-29.9v-4a3.987 3.987 0 0 0 -2-3.444zm21 38.667-2.8 3.733a1 1 0 0 0 -.2.6v5h-19v-5a1 1 0 0 0 -.2-.6l-2.8-3.733v-14.667a2 2 0 0 1 4 0v8a1 1 0 0 0 .105.447l1.895 3.789v2.764h2v-3a1 1 0 0 0 -.105-.447l-1.895-3.789v-1.764h4v2h2v-2h3v2h2v-2h3v2h2v-2h3zm17 4.333a5 5 0 0 1 -10 0v-4a5 5 0 0 1 10 0z"/><path d="m47 48h2v2h-2z"/><path d="m20.707 21.707 3-3a1 1 0 0 0 0-1.414l-3-3-1.414 1.414 2.293 2.293-2.293 2.293z"/><path d="m26 20h6v2h-6z"/></svg>