<svg width="100" height="100" viewBox="0 0 100 100" fill="none" xmlns="http://www.w3.org/2000/svg">
<path d="M50 100C77.6142 100 100 77.6142 100 50C100 22.3858 77.6142 0 50 0C22.3858 0 0 22.3858 0 50C0 77.6142 22.3858 100 50 100Z" fill="#5BA574"/>
<path d="M89.6554 16.0172V62.069H10.3452V13.7932C10.3507 11.8911 11.8913 10.3504 13.7935 10.345H85.5693L55.5003 40.4139C53.1155 39.7827 50.5749 40.4653 48.8278 42.2071C47.3278 43.7071 46.2933 47.7932 45.6728 51.1036C45.4913 52.1104 45.7653 53.1458 46.4208 53.9311C47.0765 54.7165 48.0462 55.1709 49.0692 55.1725C49.2773 55.1725 49.4849 55.1551 49.6899 55.1208C53.0003 54.5 57.0864 53.4657 58.5864 51.9483C60.3276 50.2081 61.0107 47.6725 60.3796 45.2932L89.6554 16.0172Z" fill="#E6E7E8"/>
<path d="M89.6554 62.069V65.5172C89.6497 67.4194 88.1093 68.96 86.2071 68.9655H13.7935C11.8913 68.9598 10.3507 67.4194 10.3452 65.5172V62.069H89.6554Z" fill="#E6E7E8"/>
<path d="M56.8967 68.9655H43.1035V75.8619H56.8967V68.9655Z" fill="#E6E7E8"/>
<path d="M67.2416 86.2069H32.7588C32.7674 80.4971 37.3939 75.8707 43.1037 75.8619H56.8969C62.6082 75.8666 67.2371 80.4955 67.2416 86.2069Z" fill="#E6E7E8"/>
<path d="M18.9655 56.8965H17.2413C16.2892 56.8965 15.5171 56.1246 15.5171 55.1723C15.5171 54.2199 16.289 53.4481 17.2413 53.4481H18.9655C19.9177 53.4481 20.6897 54.2199 20.6897 55.1723C20.6897 56.1246 19.9179 56.8965 18.9655 56.8965Z" fill="#E6E7E8"/>
<path d="M50.0003 56.8965H25.8624C24.9103 56.8965 24.1382 56.1246 24.1382 55.1723C24.1382 54.2199 24.9101 53.4481 25.8624 53.4481H50.0003C50.9524 53.4481 51.7245 54.2199 51.7245 55.1723C51.7245 56.1246 50.9524 56.8965 50.0003 56.8965Z" fill="#E6E7E8"/>
<path d="M58.5867 51.9483C57.0867 53.4655 53.0005 54.5 49.6902 55.1208C49.4851 55.1551 49.2775 55.1723 49.0695 55.1725C48.0464 55.1711 47.0767 54.7165 46.421 53.9311C45.7654 53.1458 45.4915 52.1102 45.673 51.1036C46.2937 47.7932 47.3281 43.7071 48.8281 42.2071C50.5669 40.4575 53.108 39.7702 55.4917 40.4047C57.8755 41.0393 59.7384 42.8991 60.3773 45.2817C61.016 47.6641 60.3332 50.2063 58.5867 51.9483Z" fill="#E6E7E8"/>
<path d="M65.6901 39.9828L60.3798 45.2932C59.7296 42.9189 57.8747 41.0641 55.5005 40.4139L60.8108 35.1035L65.6901 39.9828Z" fill="#E6E7E8"/>
<path d="M92.6381 13.0346L65.6898 39.9829L60.8105 35.1036L87.7588 8.15512C88.6305 7.28344 89.9008 6.9432 91.0914 7.26215C92.282 7.58109 93.2121 8.51117 93.5311 9.7018C93.8502 10.8926 93.5098 12.1629 92.6381 13.0346Z" fill="#E6E7E8"/>
<path d="M89.6554 16.0172V62.0689H10.3452V13.7932C10.3507 11.891 11.8913 10.3504 13.7935 10.3449H85.5693L55.5003 40.4139C53.1155 39.7826 50.5749 40.4652 48.8278 42.207C47.3278 43.707 46.2933 47.7932 45.6728 51.1035C45.4913 52.1103 45.7653 53.1457 46.4208 53.931C47.0765 54.7164 48.0462 55.1709 49.0692 55.1724C49.2773 55.1724 49.4849 55.1551 49.6899 55.1207C53.0003 54.5 57.0864 53.4656 58.5864 51.9482C60.3276 50.208 61.0107 47.6724 60.3796 45.2932L89.6554 16.0172Z" fill="#B0D3F0"/>
<path d="M89.6554 63.7931V67.2413C89.6497 69.1435 88.1093 70.6841 86.2071 70.6896H13.7935C11.8913 70.6839 10.3507 69.1435 10.3452 67.2413V63.7931H89.6554Z" fill="#3F5C6C"/>
<path d="M56.8967 68.9655H43.1035V75.8619H56.8967V68.9655Z" fill="#41767F"/>
<path d="M67.2411 86.2069H32.7583C32.7669 80.4971 32.7902 75.8707 38.5 75.8619H61.5C67.2113 75.8666 67.2366 80.4955 67.2411 86.2069Z" fill="#3F5C6C"/>
<path d="M18.9655 56.8965H17.2413C16.2892 56.8965 15.5171 56.1246 15.5171 55.1723C15.5171 54.2199 16.289 53.4481 17.2413 53.4481H18.9655C19.9177 53.4481 20.6897 54.2199 20.6897 55.1723C20.6897 56.1246 19.9179 56.8965 18.9655 56.8965Z" fill="#D75E72"/>
<path d="M49.9998 56.8965H25.8619C24.9098 56.8965 24.1377 56.1246 24.1377 55.1723C24.1377 54.2199 24.9096 53.4481 25.8619 53.4481H49.9998C50.952 53.4481 51.724 54.2199 51.724 55.1723C51.724 56.1246 50.952 56.8965 49.9998 56.8965Z" fill="#D75E72"/>
<path d="M58.5862 51.9482C57.0862 53.4654 53 54.5 49.6897 55.1207C49.4846 55.1551 49.277 55.1723 49.069 55.1725C48.0459 55.1711 47.0762 54.7164 46.4206 53.9311C45.7649 53.1457 45.4911 52.1101 45.6725 51.1035C46.2932 47.7932 47.3276 43.707 48.8276 42.207C50.5665 40.4574 53.1075 39.7701 55.4913 40.4047C57.875 41.0392 59.7379 42.899 60.3768 45.2816C61.0155 47.6641 60.3327 50.2062 58.5862 51.9482Z" fill="#DF4D60"/>
<path d="M65.6896 39.9828L60.3793 45.2932C59.7291 42.9189 57.8742 41.0641 55.5 40.4139L60.8103 35.1035L65.6896 39.9828Z" fill="#CB8252"/>
<path d="M92.6376 13.0346L65.6894 39.9829L60.8101 35.1036L87.7583 8.15512C88.63 7.28344 89.9003 6.9432 91.0909 7.26215C92.2816 7.58109 93.2116 8.51117 93.5306 9.7018C93.8497 10.8926 93.5093 12.1629 92.6376 13.0346Z" fill="#805333"/>
</svg>
