<svg width="97" height="87" viewBox="0 0 97 87" fill="none" xmlns="http://www.w3.org/2000/svg">
<rect x="16" y="37" width="65" height="43" fill="#FE8A9F"/>
<path d="M75.875 83H21.125C16.0962 83 12 79.637 12 75.5V40.5C12 36.363 16.0962 33 21.125 33H75.875C80.9039 33 85 36.363 85 40.5V75.5C85 79.637 80.9039 83 75.875 83ZM21.125 38C19.4497 38 18.0833 39.12 18.0833 40.5V75.5C18.0833 76.88 19.4497 78 21.125 78H75.875C77.5503 78 78.9167 76.88 78.9167 75.5V40.5C78.9167 39.12 77.5503 38 75.875 38H21.125Z" fill="#FF6086"/>
<path d="M69.7188 38.0625C68.0455 38.0625 66.6875 36.8445 66.6875 35.3438V21.75C66.6875 12.7561 58.5277 5.4375 48.5 5.4375C38.4723 5.4375 30.3125 12.7561 30.3125 21.75V35.3438C30.3125 36.8445 28.9545 38.0625 27.2812 38.0625C25.608 38.0625 24.25 36.8445 24.25 35.3438V21.75C24.25 9.75458 35.1258 0 48.5 0C61.8742 0 72.75 9.75458 72.75 21.75V35.3438C72.75 36.8445 71.392 38.0625 69.7188 38.0625Z" fill="#FF6086"/>
</svg>

