<svg width="100" height="100" viewBox="0 0 100 100" fill="none" xmlns="http://www.w3.org/2000/svg">
<g clip-path="url(#clip0)">
<path d="M50.0002 92.0572C55.0421 92.0572 59.1293 87.97 59.1293 82.9281C59.1293 77.8863 55.0421 73.799 50.0002 73.799C44.9583 73.799 40.8711 77.8863 40.8711 82.9281C40.8711 87.97 44.9583 92.0572 50.0002 92.0572Z" fill="#FE8A9F"/>
<path d="M59.1291 82.9275C59.1291 87.9711 55.0416 92.0564 50.0002 92.0564C46.5971 92.0564 43.6285 90.1949 42.0586 87.4336C43.1293 87.8381 44.2945 88.0475 45.508 88.0172C50.5475 87.8924 54.5322 83.7063 54.4096 78.6648C54.3713 77.1072 53.9447 75.6522 53.2262 74.3861C56.6758 75.6883 59.1291 79.0232 59.1291 82.9275Z" fill="#FF6086"/>
<path d="M86.8416 54.5928C89.9399 51.3317 89.4922 46.1074 85.9004 43.3994C75.942 35.892 63.5668 31.4199 50.15 31.3539V31.3502C50.0998 31.3502 50.05 31.352 49.9998 31.3522C49.9497 31.352 49.8998 31.3502 49.8497 31.3502V31.3539C36.4329 31.4199 24.0577 35.892 14.0993 43.3994C10.5073 46.1073 10.0596 51.3317 13.1581 54.5928C15.7815 57.3539 20.0668 57.7319 23.1059 55.4362C30.5913 49.7817 39.9034 46.4176 50 46.3844C60.0965 46.4176 69.4086 49.7815 76.8942 55.4362C79.9329 57.7317 84.2184 57.3539 86.8416 54.5928V54.5928Z" fill="#F0F5FA"/>
<path d="M50 52.4322C42.4293 52.4322 35.3481 54.5283 29.3053 58.1717C25.2367 60.6248 24.2946 66.1244 27.26 69.8361C29.733 72.9318 34.1098 73.7033 37.509 71.6674C41.161 69.4803 45.4336 68.2232 50 68.2232C54.5664 68.2232 58.8391 69.4805 62.491 71.6674C65.8903 73.7031 70.267 72.9318 72.7401 69.8361C75.7053 66.1242 74.7633 60.6246 70.6948 58.1717C64.652 54.5281 57.5707 52.4322 50 52.4322Z" fill="#FE8A9F"/>
<path d="M49.9999 7.94278C34.3716 7.94278 16.3329 12.5414 3.7392 21.2996C-0.335024 24.133 -1.23092 29.7857 1.80072 33.7147C4.62806 37.3791 9.82123 38.1479 13.6261 35.5125C23.515 28.6629 37.9896 25.1186 50.0001 25.1186C62.0107 25.1186 76.4853 28.6631 86.3742 35.5125C90.179 38.1479 95.3722 37.3791 98.1995 33.7147C101.231 29.7856 100.335 24.133 96.2611 21.2996C83.6669 12.5414 65.6283 7.94278 49.9999 7.94278Z" fill="#F0F5FA"/>
<path d="M99.9998 28.4436C99.9998 30.283 99.4162 32.1387 98.1986 33.7145C95.373 37.3793 90.1787 38.1481 86.375 35.5117C76.4851 28.6629 62.0109 25.119 50 25.119C37.9891 25.119 23.5148 28.6629 13.6252 35.5117C12.1078 36.5643 10.3689 37.0734 8.64609 37.0734C6.0539 37.0734 3.5 35.9162 1.80136 33.7145C-0.197074 31.1264 -0.488871 27.7916 0.70859 25.0063C1.00039 25.6885 1.39082 26.3467 1.87578 26.9584C3.57832 29.1037 6.09609 30.2248 8.65 30.2248C10.409 30.2248 12.1861 29.6936 13.7236 28.5967C23.5207 21.6152 37.9447 17.8758 49.9555 17.7149C61.9643 17.5539 76.485 20.9027 86.465 27.6186C90.3051 30.2027 95.4873 29.3654 98.2646 25.6623C98.5564 25.2719 98.8121 24.8652 99.0273 24.4467C99.6697 25.6863 99.9998 27.061 99.9998 28.4436Z" fill="#D6D2D3"/>
<path d="M86.8419 54.5928C84.2196 57.3539 79.9329 57.7324 76.8939 55.4361C69.4091 49.7809 60.097 46.418 50.0001 46.3836C39.9032 46.4178 30.5911 49.7809 23.1064 55.4361C21.77 56.4465 20.1921 56.9395 18.6204 56.9395C16.6179 56.9395 14.6275 56.1404 13.1583 54.5928C11.6831 53.041 11.013 51.0467 11.1015 49.0885C11.1618 49.1529 11.2243 49.2172 11.2886 49.2816C12.7497 50.7387 14.6777 51.4834 16.6118 51.4834C18.2501 51.4834 19.8903 50.9502 21.2568 49.8613C28.5905 44.0109 37.8099 40.4023 47.9009 40.1025C57.9958 39.8691 67.3925 42.9865 75.0261 48.4426C78.1234 50.6564 82.398 50.1652 84.948 47.3357C85.8195 46.3678 86.3909 45.2406 86.6706 44.0674C89.5407 46.8988 89.7036 51.582 86.8419 54.5928V54.5928Z" fill="#D6D2D3"/>
<path d="M74.4727 64.899C74.4727 66.6238 73.9111 68.3707 72.7398 69.8357C70.2664 72.931 65.8912 73.7039 62.492 71.6672C58.8393 69.4795 54.5666 68.2236 50.0002 68.2236C45.4338 68.2236 41.1611 69.4795 37.5084 71.6672C36.2344 72.4299 34.8236 72.7982 33.4289 72.7982C31.0984 72.7982 28.808 71.7719 27.2604 69.8357C26.6021 69.0127 26.1373 68.101 25.8535 67.1529C27.1254 67.9558 28.5945 68.3724 30.0779 68.3724C31.5391 68.3724 33.0143 67.968 34.3285 67.1367C37.3609 65.2189 40.8154 64.0201 44.3377 63.3955C47.4988 62.8349 50.14 62.8637 53.2965 63.1959C55.6713 63.4459 58.0604 64.0131 60.2961 64.8506C62.5127 65.681 64.7344 67.0785 67.1447 65.9287C69.4789 64.8152 71.1156 62.2402 71.1156 59.6539C71.1156 59.2252 71.0814 58.7965 71.0129 58.3738C73.2691 59.8838 74.4727 62.3713 74.4727 64.899V64.899Z" fill="#FF6086"/>
</g>
<defs>
<clipPath id="clip0">
<rect width="100" height="100" fill="white"/>
</clipPath>
</defs>
</svg>
