<svg width="150" height="150" viewBox="0 0 150 150" fill="none" xmlns="http://www.w3.org/2000/svg">
<path d="M74.9998 88.1751C82.2762 88.1751 88.1749 82.2764 88.1749 75C88.1749 67.7236 82.2762 61.8249 74.9998 61.8249C67.7234 61.8249 61.8247 67.7236 61.8247 75C61.8247 82.2764 67.7234 88.1751 74.9998 88.1751Z" fill="url(#paint0_linear)"/>
<path d="M117.768 67.1312L107.891 65.5125C107.183 63.0577 106.203 60.6955 104.963 58.454L110.68 50.446C111.429 49.3986 111.311 47.9628 110.4 47.052L102.948 39.5997C102.034 38.6862 100.596 38.5652 99.5538 39.3193L91.5458 45.0372C89.3046 43.7968 86.9424 42.8165 84.4873 42.109L82.8687 32.2321C82.6577 30.9609 81.5588 30.0293 80.2697 30.0293H69.7296C68.4405 30.0293 67.3416 30.9609 67.1307 32.2321L65.512 42.109C63.0572 42.8165 60.695 43.7971 58.4535 45.0372L50.4455 39.3193C49.3955 38.5652 47.9623 38.6862 47.0515 39.5997L39.5992 47.052C38.6884 47.9628 38.57 49.3986 39.3188 50.446L45.0367 58.454C43.7963 60.6952 42.816 63.0574 42.1085 65.5125L32.2316 67.1312C30.9604 67.3421 30.0288 68.441 30.0288 69.7301V80.2702C30.0288 81.5593 30.9604 82.6582 32.2316 82.8691L42.1085 84.4878C42.816 86.9426 43.7966 89.3048 45.0367 91.5463L39.3188 99.5543C38.57 100.602 38.6884 102.038 39.5992 102.948L47.0515 110.401C47.9623 111.309 49.3958 111.425 50.4455 110.681L58.4535 104.963C60.6947 106.204 63.0569 107.184 65.512 107.891L67.1307 117.768C67.3416 119.039 68.4405 119.971 69.7296 119.971H80.2697C81.5588 119.971 82.6577 119.039 82.8687 117.768L84.4873 107.891C86.9421 107.184 89.3043 106.203 91.5458 104.963L99.5538 110.681C100.596 111.425 102.034 111.309 102.948 110.401L110.4 102.948C111.311 102.038 111.429 100.602 110.68 99.5543L104.963 91.5463C106.203 89.3051 107.183 86.9429 107.891 84.4878L117.768 82.8691C119.039 82.6582 119.971 81.5593 119.971 80.2702V69.7301C119.971 68.4407 119.039 67.3421 117.768 67.1312V67.1312ZM74.9998 93.445C64.8303 93.445 56.5548 85.1695 56.5548 75C56.5548 64.8305 64.8303 56.555 74.9998 56.555C85.1693 56.555 93.4448 64.8305 93.4448 75C93.4448 85.1695 85.1693 93.445 74.9998 93.445Z" fill="#D70751"/>
<defs>
<linearGradient id="paint0_linear" x1="74.9998" y1="26.4316" x2="74.9998" y2="119.207" gradientUnits="userSpaceOnUse">
<stop stop-color="#D70751"/>
<stop offset="1" stop-color="#E788AA"/>
</linearGradient>
</defs>
</svg>
