<svg width="150" height="150" viewBox="0 0 150 150" fill="none" xmlns="http://www.w3.org/2000/svg">
<path d="M75 89.6483C83.0902 89.6483 89.6485 83.0899 89.6485 74.9998C89.6485 66.9097 83.0902 60.3513 75 60.3513C66.9099 60.3513 60.3516 66.9097 60.3516 74.9998C60.3516 83.0899 66.9099 89.6483 75 89.6483Z" fill="url(#paint0_linear)"/>
<path d="M122.551 66.251L111.569 64.4513C110.783 61.722 109.693 59.0957 108.314 56.6035L114.671 47.6999C115.504 46.5354 115.372 44.939 114.359 43.9263L106.074 35.6407C105.058 34.6251 103.459 34.4905 102.3 35.329L93.3965 41.6863C90.9047 40.3071 88.2783 39.2172 85.5487 38.4306L83.749 27.4492C83.5145 26.0358 82.2927 25 80.8594 25H69.1406C67.7074 25 66.4855 26.0358 66.251 27.4492L64.4513 38.4306C61.722 39.2172 59.0957 40.3074 56.6035 41.6863L47.6999 35.329C46.5325 34.4905 44.939 34.6251 43.9263 35.6407L35.6407 43.9263C34.628 44.939 34.4964 46.5354 35.329 47.6999L41.6863 56.6035C40.3071 59.0953 39.2172 61.7217 38.4306 64.4513L27.4492 66.251C26.0358 66.4855 25 67.7074 25 69.1406V80.8594C25 82.2927 26.0358 83.5145 27.4492 83.749L38.4306 85.5487C39.2172 88.278 40.3074 90.9043 41.6863 93.3965L35.329 102.3C34.4964 103.465 34.628 105.061 35.6407 106.074L43.9263 114.359C44.939 115.369 46.5328 115.498 47.6999 114.671L56.6035 108.314C59.0953 109.693 61.7217 110.783 64.4513 111.569L66.251 122.551C66.4855 123.964 67.7074 125 69.1406 125H80.8594C82.2927 125 83.5145 123.964 83.749 122.551L85.5487 111.569C88.278 110.783 90.9043 109.693 93.3965 108.314L102.3 114.671C103.459 115.498 105.058 115.369 106.074 114.359L114.359 106.074C115.372 105.061 115.504 103.465 114.671 102.3L108.314 93.3965C109.693 90.9047 110.783 88.2783 111.569 85.5487L122.551 83.749C123.964 83.5145 125 82.2927 125 80.8594V69.1406C125 67.707 123.964 66.4855 122.551 66.251V66.251ZM75.0002 95.5076C63.6934 95.5076 54.4924 86.3066 54.4924 74.9998C54.4924 63.693 63.6934 54.4921 75.0002 54.4921C86.307 54.4921 95.5079 63.693 95.5079 74.9998C95.5079 86.3066 86.307 95.5076 75.0002 95.5076Z" fill="#D70751"/>
<defs>
<linearGradient id="paint0_linear" x1="75" y1="21" x2="75" y2="124.15" gradientUnits="userSpaceOnUse">
<stop stop-color="#D70751"/>
<stop offset="1" stop-color="#E788AA"/>
</linearGradient>
</defs>
</svg>
