<svg width="512" height="512" viewBox="0 0 512 512" fill="none" xmlns="http://www.w3.org/2000/svg">
<path d="M512 256C512 252.89 511.944 249.792 511.835 246.709C506.944 109.628 394.275 0 256 0C117.725 0 5.056 109.628 0.166 246.709C0.056 249.792 0 252.89 0 256C0 397.385 131.502 502.71 256 502.71C382.754 502.71 512 397.385 512 256Z" fill="#FF5876"/>
<path d="M256 493.419C117.727 493.419 5.078 383.788 0.186 246.709C0.075 249.795 0 252.888 0 256C0 397.385 114.615 512 256 512C397.385 512 512 397.385 512 256C512 252.888 511.925 249.795 511.815 246.71C506.922 383.789 394.273 493.419 256 493.419Z" fill="#E6485D"/>
<path d="M469.419 246.709C464.555 133.042 370.865 42.382 256 42.382C141.135 42.382 47.4448 133.042 42.5808 246.709C42.4488 249.79 42.5798 456.03 256 456.03C469.42 456.03 469.551 249.79 469.419 246.709V246.709Z" fill="#E4EEF9"/>
<path d="M256 451.037C141.136 451.037 47.4608 360.375 42.5948 246.709C42.4628 249.791 42.3818 252.885 42.3818 255.999C42.3818 373.977 138.022 469.617 256 469.617C373.978 469.617 469.618 373.978 469.618 256C469.618 252.886 469.536 249.791 469.405 246.71C464.539 360.376 370.864 451.037 256 451.037V451.037Z" fill="#D5E0F2"/>
<path d="M263.757 93.573V69.546C263.757 65.262 260.284 61.789 256 61.789C251.716 61.789 248.243 65.262 248.243 69.546V93.573C248.243 97.857 251.715 101.33 256 101.33C260.285 101.33 263.757 97.857 263.757 93.573Z" fill="#405B6C"/>
<path d="M248.243 418.427V442.454C248.243 446.738 251.715 450.211 256 450.211C260.285 450.211 263.757 446.738 263.757 442.454V418.427C263.757 414.143 260.284 410.67 256 410.67C251.716 410.67 248.243 414.143 248.243 418.427Z" fill="#405B6C"/>
<path d="M442.454 263.757C446.739 263.757 450.211 260.284 450.211 256C450.211 251.716 446.738 248.243 442.454 248.243H418.427C414.143 248.243 410.67 251.716 410.67 256C410.67 260.284 414.143 263.757 418.427 263.757H442.454Z" fill="#405B6C"/>
<path d="M69.5461 248.243C65.2611 248.243 61.7891 251.716 61.7891 256C61.7891 260.284 65.2611 263.757 69.5461 263.757H93.5731C97.8581 263.757 101.33 260.284 101.33 256C101.33 251.716 97.8571 248.243 93.5731 248.243H69.5461Z" fill="#405B6C"/>
</svg>
