<?xml version="1.0" encoding="iso-8859-1"?>
<!-- Generator: Adobe Illustrator 19.0.0, SVG Export Plug-In . SVG Version: 6.00 Build 0)  -->
<svg version="1.1" id="Layer_1" xmlns="http://www.w3.org/2000/svg" xmlns:xlink="http://www.w3.org/1999/xlink" x="0px" y="0px"
	 viewBox="0 0 512 512" style="enable-background:new 0 0 512 512;" xml:space="preserve">
<g>
	<path style="fill:#2C3E50;" d="M105.931,35.31v114.759l-52.966,52.966v61.793h52.966v44.138l-52.966,52.966V476.69
		c0,19.5,15.81,35.31,35.31,35.31h335.448c19.5,0,35.31-15.81,35.31-35.31V35.31c0-19.5-15.81-35.31-35.31-35.31H141.241
		C121.741,0,105.931,15.81,105.931,35.31"/>
	<g>
		<path style="fill:#546B7F;" d="M406.069,467.862H158.897c-4.873,0-8.828-3.955-8.828-8.828s3.955-8.828,8.828-8.828h247.172
			c4.873,0,8.828,3.955,8.828,8.828S410.942,467.862,406.069,467.862"/>
		<path style="fill:#546B7F;" d="M282.483,114.759c-4.873,0-8.828-3.955-8.828-8.828V52.966c0-4.873,3.955-8.828,8.828-8.828
			s8.828,3.955,8.828,8.828v52.966C291.31,110.804,287.356,114.759,282.483,114.759"/>
		<path style="fill:#546B7F;" d="M238.345,114.759c-4.873,0-8.828-3.955-8.828-8.828V52.966c0-4.873,3.955-8.828,8.828-8.828
			c4.873,0,8.828,3.955,8.828,8.828v52.966C247.172,110.804,243.218,114.759,238.345,114.759"/>
		<path style="fill:#546B7F;" d="M326.621,114.759c-4.873,0-8.828-3.955-8.828-8.828V52.966c0-4.873,3.955-8.828,8.828-8.828
			s8.828,3.955,8.828,8.828v52.966C335.448,110.804,331.494,114.759,326.621,114.759"/>
		<path style="fill:#546B7F;" d="M370.759,114.759c-4.873,0-8.828-3.955-8.828-8.828V52.966c0-4.873,3.955-8.828,8.828-8.828
			c4.873,0,8.828,3.955,8.828,8.828v52.966C379.586,110.804,375.631,114.759,370.759,114.759"/>
		<path style="fill:#546B7F;" d="M194.207,114.759c-4.873,0-8.828-3.955-8.828-8.828V52.966c0-4.873,3.955-8.828,8.828-8.828
			s8.828,3.955,8.828,8.828v52.966C203.034,110.804,199.08,114.759,194.207,114.759"/>
		<path style="fill:#546B7F;" d="M220.69,423.724c-38.938,0-70.621-31.682-70.621-70.621s31.682-70.621,70.621-70.621
			c14.53,0,28.495,4.378,40.369,12.668c3.99,2.789,4.979,8.289,2.189,12.288c-2.79,3.99-8.289,4.996-12.297,2.189
			c-8.898-6.206-19.359-9.49-30.261-9.49c-29.21,0-52.966,23.755-52.966,52.966c0,29.21,23.755,52.966,52.966,52.966
			c26.2,0,48.013-19.121,52.233-44.138h-34.578c-4.873,0-8.828-3.955-8.828-8.828c0-4.873,3.955-8.828,8.828-8.828h44.138
			c4.873,0,8.828,3.955,8.828,8.828C291.31,392.042,259.628,423.724,220.69,423.724"/>
		<path style="fill:#546B7F;" d="M326.621,344.276h39.724c12.164,0,22.069-9.905,22.069-22.069s-9.905-22.069-22.069-22.069h-39.724
			V344.276z M366.345,361.931h-48.552c-4.873,0-8.828-3.955-8.828-8.828V291.31c0-4.873,3.955-8.828,8.828-8.828h48.552
			c21.901,0,39.724,17.823,39.724,39.724C406.069,344.108,388.246,361.931,366.345,361.931L366.345,361.931z"/>
		<path style="fill:#546B7F;" d="M326.621,406.069h39.724c12.164,0,22.069-9.905,22.069-22.069s-9.905-22.069-22.069-22.069h-39.724
			V406.069z M366.345,423.724h-48.552c-4.873,0-8.828-3.955-8.828-8.828v-61.793c0-4.873,3.955-8.828,8.828-8.828h48.552
			c21.901,0,39.724,17.823,39.724,39.724S388.246,423.724,366.345,423.724L366.345,423.724z"/>
	</g>
</g>
<g>
</g>
<g>
</g>
<g>
</g>
<g>
</g>
<g>
</g>
<g>
</g>
<g>
</g>
<g>
</g>
<g>
</g>
<g>
</g>
<g>
</g>
<g>
</g>
<g>
</g>
<g>
</g>
<g>
</g>
</svg>
