<svg width="100" height="100" viewBox="0 0 100 100" fill="none" xmlns="http://www.w3.org/2000/svg">
<path d="M50 64.6483C58.0902 64.6483 64.6485 58.0899 64.6485 49.9998C64.6485 41.9097 58.0902 35.3513 50 35.3513C41.9099 35.3513 35.3516 41.9097 35.3516 49.9998C35.3516 58.0899 41.9099 64.6483 50 64.6483Z" fill="url(#paint0_linear)"/>
<path d="M97.5508 41.251L86.5694 39.4513C85.7828 36.722 84.6926 34.0957 83.3137 31.6035L89.6711 22.6999C90.5036 21.5354 90.372 19.939 89.3593 18.9263L81.0737 10.6407C80.058 9.62505 78.4587 9.49053 77.3001 10.329L68.3965 16.6863C65.9047 15.3071 63.2783 14.2172 60.5487 13.4306L58.749 2.44918C58.5145 1.03583 57.2927 0 55.8594 0H44.1406C42.7074 0 41.4855 1.03583 41.251 2.44918L39.4513 13.4306C36.722 14.2172 34.0957 15.3074 31.6035 16.6863L22.6999 10.329C21.5325 9.49053 19.939 9.62505 18.9263 10.6407L10.6407 18.9263C9.62798 19.939 9.49639 21.5354 10.329 22.6999L16.6863 31.6035C15.3071 34.0953 14.2172 36.7217 13.4306 39.4513L2.44918 41.251C1.03583 41.4855 0 42.7074 0 44.1406V55.8594C0 57.2927 1.03583 58.5145 2.44918 58.749L13.4306 60.5487C14.2172 63.278 15.3074 65.9043 16.6863 68.3965L10.329 77.3001C9.49639 78.4646 9.62798 80.061 10.6407 81.0737L18.9263 89.3593C19.939 90.3691 21.5328 90.4981 22.6999 89.671L31.6035 83.3137C34.0953 84.6929 36.7217 85.7828 39.4513 86.5694L41.251 97.5508C41.4855 98.9642 42.7074 100 44.1406 100H55.8594C57.2927 100 58.5145 98.9642 58.749 97.5508L60.5487 86.5694C63.278 85.7828 65.9043 84.6926 68.3965 83.3137L77.3001 89.671C78.4587 90.4977 80.058 90.3691 81.0737 89.3593L89.3593 81.0737C90.372 80.061 90.5036 78.4646 89.6711 77.3001L83.3137 68.3965C84.6929 65.9047 85.7828 63.2783 86.5694 60.5487L97.5508 58.749C98.9642 58.5145 100 57.2927 100 55.8594V44.1406C100 42.707 98.9642 41.4855 97.5508 41.251V41.251ZM50.0002 70.5076C38.6934 70.5076 29.4924 61.3066 29.4924 49.9998C29.4924 38.693 38.6934 29.4921 50.0002 29.4921C61.307 29.4921 70.5079 38.693 70.5079 49.9998C70.5079 61.3066 61.307 70.5076 50.0002 70.5076Z" fill="#D70751"/>
<defs>
<linearGradient id="paint0_linear" x1="50" y1="-4.00001" x2="50" y2="99.1504" gradientUnits="userSpaceOnUse">
<stop stop-color="#D70751"/>
<stop offset="1" stop-color="#E788AA"/>
</linearGradient>
</defs>
</svg>

