<svg width="130" height="130" viewBox="0 0 130 130" fill="none" xmlns="http://www.w3.org/2000/svg">
<rect width="130" height="130" fill="white"/>
<path d="M114.983 65C114.983 37.3854 92.6016 15 64.9916 15C37.3824 15 15 37.3854 15 65C15 92.6146 37.3824 115 64.9916 115C92.6016 115 114.983 92.6146 114.983 65Z" fill="#407FFF"/>
<path d="M96.3066 26.0275C103.203 34.5984 107.333 45.4893 107.333 57.3477C107.333 84.9615 84.9503 107.348 57.3402 107.348C45.4849 107.348 34.5955 103.217 26.0254 96.3202C35.1891 107.709 49.2378 115 64.9918 115C92.6018 115 114.983 92.6146 114.983 65C114.983 49.243 107.694 35.192 96.3066 26.0275Z" fill="#406AEF"/>
<path d="M61.3178 68.3432C60.7403 68.3432 60.1635 68.1944 59.6462 67.8954C58.6117 67.298 57.9746 66.194 57.9746 65V41.8997C57.9746 39.997 58.9977 38.2247 60.6449 37.2733C62.2921 36.3219 64.3391 36.3219 65.9862 37.2725L82.8045 46.9847C84.4906 47.9582 85.5381 49.7717 85.5381 51.7188C85.5381 53.6658 84.4906 55.4793 82.8045 56.4528L62.9886 67.8954C62.4721 68.1944 61.8946 68.3432 61.3178 68.3432ZM64.6602 44.229V59.2085L77.631 51.7195L64.6602 44.229Z" fill="white"/>
<path d="M63.3159 93.4401C62.392 93.4401 61.4689 93.2021 60.6449 92.7268C58.9977 91.7754 57.9746 90.0031 57.9746 88.1003V65C57.9746 63.8052 58.6117 62.7013 59.6462 62.1047C60.68 61.5073 61.9549 61.5073 62.9886 62.1047L82.8045 73.5472C84.4906 74.52 85.5381 76.3342 85.5381 78.2813C85.5381 80.2283 84.4906 82.0418 82.8045 83.0153L65.9862 92.7268C65.163 93.2028 64.2391 93.4401 63.3159 93.4401ZM64.6602 70.7915V85.771L77.631 78.2805L64.6602 70.7915Z" fill="white"/>
<path d="M68.009 65.0031C67.449 65.9766 67.7832 67.2194 68.7559 67.7809L78.7405 73.5472C80.4258 74.52 81.4734 76.3342 81.4734 78.2805C81.4734 80.2275 80.4258 82.0418 78.7405 83.0153L61.9215 92.7267C61.7148 92.8465 61.5019 92.9503 61.2837 93.0403C61.933 93.3066 62.6242 93.4401 63.3162 93.4401C64.2393 93.4401 65.1632 93.2021 65.9865 92.7267L82.8047 83.0145C84.4908 82.0418 85.5383 80.2275 85.5383 78.2805C85.5383 76.3335 84.4908 74.52 82.8047 73.5464L68.009 65.0031Z" fill="white"/>
<path d="M68.0089 65.003L82.8045 56.4528C84.4883 55.4808 85.5351 53.6696 85.5374 51.7248C85.5359 49.7801 84.4891 47.9681 82.8045 46.9961L65.7399 37.142C64.3651 36.4416 62.7507 36.3745 61.3301 36.9421L78.7404 46.9961C80.4257 47.9689 81.4732 49.7831 81.4732 51.7302C81.4732 53.6764 80.4257 55.4907 78.7396 56.4642L68.7664 62.2282C67.796 62.789 67.458 64.0265 68.0089 65.003Z" fill="white"/>
<path d="M68.0091 65.0031L48.989 76.1016C48.4595 76.4106 47.8804 76.557 47.309 76.557C46.1585 76.557 45.0385 75.9627 44.4175 74.8969C43.4874 73.3008 44.0268 71.2538 45.6221 70.3238L64.6422 59.2253" fill="white"/>
<path d="M54.6201 65.0801V72.8194L66.3503 65.9827L59.6799 62.1306L54.6201 65.0801Z" fill="white"/>
<path d="M64.6605 70.7915L45.6312 59.7746C44.0329 58.85 43.4874 56.8045 44.412 55.2062C45.336 53.6078 47.3822 53.0623 48.9798 53.9862L68.009 65.0031" fill="white"/>
</svg>
