<svg width="160" height="160" viewBox="0 0 160 160" fill="none" xmlns="http://www.w3.org/2000/svg">
<path d="M129.983 80C129.983 52.3854 107.602 30 79.9916 30C52.3824 30 30 52.3854 30 80C30 107.615 52.3824 130 79.9916 130C107.602 130 129.983 107.615 129.983 80Z" fill="#FF4040"/>
<path d="M111.307 41.0275C118.203 49.5984 122.333 60.4893 122.333 72.3477C122.333 99.9615 99.9503 122.348 72.3402 122.348C60.4849 122.348 49.5955 118.217 41.0254 111.32C50.1891 122.709 64.2378 130 79.9918 130C107.602 130 129.983 107.615 129.983 80C129.983 64.243 122.694 50.192 111.307 41.0275Z" fill="#EF4040"/>
<path d="M76.3178 83.3432C75.7403 83.3432 75.1635 83.1944 74.6462 82.8954C73.6117 82.298 72.9746 81.194 72.9746 80V56.8997C72.9746 54.997 73.9977 53.2247 75.6449 52.2733C77.2921 51.3219 79.3391 51.3219 80.9862 52.2725L97.8045 61.9847C99.4906 62.9582 100.538 64.7717 100.538 66.7188C100.538 68.6658 99.4906 70.4793 97.8045 71.4528L77.9886 82.8954C77.4721 83.1944 76.8946 83.3432 76.3178 83.3432ZM79.6602 59.229V74.2085L92.631 66.7195L79.6602 59.229Z" fill="white"/>
<path d="M78.3159 108.44C77.392 108.44 76.4689 108.202 75.6449 107.727C73.9977 106.775 72.9746 105.003 72.9746 103.1V80C72.9746 78.8052 73.6117 77.7013 74.6462 77.1046C75.68 76.5073 76.9549 76.5073 77.9886 77.1046L97.8045 88.5472C99.4906 89.52 100.538 91.3342 100.538 93.2812C100.538 95.2283 99.4906 97.0418 97.8045 98.0153L80.9862 107.727C80.163 108.203 79.2391 108.44 78.3159 108.44ZM79.6602 85.7915V100.771L92.631 93.2805L79.6602 85.7915Z" fill="white"/>
<path d="M83.009 80.0031C82.449 80.9766 82.7832 82.2194 83.7559 82.7809L93.7405 88.5472C95.4258 89.52 96.4734 91.3342 96.4734 93.2805C96.4734 95.2275 95.4258 97.0418 93.7405 98.0153L76.9215 107.727C76.7148 107.847 76.5019 107.95 76.2837 108.04C76.933 108.307 77.6242 108.44 78.3162 108.44C79.2393 108.44 80.1632 108.202 80.9865 107.727L97.8047 98.0145C99.4908 97.0418 100.538 95.2275 100.538 93.2805C100.538 91.3335 99.4908 89.52 97.8047 88.5464L83.009 80.0031Z" fill="white"/>
<path d="M83.0089 80.0031L97.8045 71.4528C99.4883 70.4808 100.535 68.6696 100.537 66.7249C100.536 64.7801 99.4891 62.9681 97.8045 61.9962L80.7399 52.142C79.3651 51.4417 77.7507 51.3745 76.3301 51.9421L93.7404 61.9962C95.4257 62.9689 96.4732 64.7832 96.4732 66.7302C96.4732 68.6765 95.4257 70.4907 93.7396 71.4642L83.7664 77.2282C82.796 77.789 82.458 79.0265 83.0089 80.0031Z" fill="white"/>
<path d="M83.0091 80.0031L63.989 91.1015C63.4595 91.4105 62.8804 91.557 62.309 91.557C61.1585 91.557 60.0385 90.9627 59.4175 89.8969C58.4874 88.3008 59.0268 86.2538 60.6221 85.3238L79.6422 74.2253" fill="white"/>
<path d="M69.6201 80.0801V87.8194L81.3503 80.9827L74.6799 77.1306L69.6201 80.0801Z" fill="white"/>
<path d="M79.6605 85.7915L60.6312 74.7746C59.0329 73.85 58.4874 71.8045 59.412 70.2062C60.336 68.6078 62.3822 68.0623 63.9798 68.9862L83.009 80.0031" fill="white"/>
</svg>
