<svg width="100" height="100" viewBox="0 0 100 100" fill="none" xmlns="http://www.w3.org/2000/svg">
<path d="M99.9832 50C99.9832 22.3854 77.6016 0 49.9916 0C22.3824 0 0 22.3854 0 50C0 77.6146 22.3824 100 49.9916 100C77.6016 100 99.9832 77.6146 99.9832 50Z" fill="#407FFF"/>
<path d="M81.3066 11.0275C88.2028 19.5984 92.3326 30.4893 92.3326 42.3477C92.3326 69.9615 69.9503 92.3477 42.3402 92.3477C30.4849 92.3477 19.5955 88.2172 11.0254 81.3202C20.1891 92.7094 34.2378 100 49.9918 100C77.6018 100 99.9834 77.6146 99.9834 50C99.9834 34.243 92.6942 20.192 81.3066 11.0275Z" fill="#406AEF"/>
<path d="M46.3178 53.3432C45.7403 53.3432 45.1635 53.1944 44.6462 52.8954C43.6117 52.298 42.9746 51.194 42.9746 50V26.8997C42.9746 24.997 43.9977 23.2247 45.6449 22.2733C47.2921 21.3219 49.3391 21.3219 50.9862 22.2725L67.8045 31.9847C69.4906 32.9582 70.5381 34.7717 70.5381 36.7188C70.5381 38.6658 69.4906 40.4793 67.8045 41.4528L47.9886 52.8954C47.4721 53.1944 46.8946 53.3432 46.3178 53.3432ZM49.6602 29.229V44.2085L62.631 36.7195L49.6602 29.229Z" fill="white"/>
<path d="M48.3159 78.4401C47.392 78.4401 46.4689 78.2021 45.6449 77.7268C43.9977 76.7754 42.9746 75.0031 42.9746 73.1003V50C42.9746 48.8052 43.6117 47.7013 44.6462 47.1047C45.68 46.5073 46.9549 46.5073 47.9886 47.1047L67.8045 58.5472C69.4906 59.52 70.5381 61.3342 70.5381 63.2813C70.5381 65.2283 69.4906 67.0418 67.8045 68.0153L50.9862 77.7268C50.163 78.2028 49.2391 78.4401 48.3159 78.4401ZM49.6602 55.7915V70.771L62.631 63.2805L49.6602 55.7915Z" fill="white"/>
<path d="M53.009 50.0031C52.449 50.9766 52.7832 52.2194 53.7559 52.7809L63.7405 58.5472C65.4258 59.52 66.4734 61.3342 66.4734 63.2805C66.4734 65.2275 65.4258 67.0418 63.7405 68.0153L46.9215 77.7267C46.7148 77.8465 46.5019 77.9503 46.2837 78.0403C46.933 78.3066 47.6242 78.4401 48.3162 78.4401C49.2393 78.4401 50.1632 78.2021 50.9865 77.7267L67.8047 68.0145C69.4908 67.0418 70.5383 65.2275 70.5383 63.2805C70.5383 61.3335 69.4908 59.52 67.8047 58.5464L53.009 50.0031Z" fill="white"/>
<path d="M53.0089 50.003L67.8045 41.4528C69.4883 40.4808 70.5351 38.6696 70.5374 36.7248C70.5359 34.7801 69.4891 32.9681 67.8045 31.9961L50.7399 22.142C49.3651 21.4416 47.7507 21.3745 46.3301 21.9421L63.7404 31.9961C65.4257 32.9689 66.4732 34.7831 66.4732 36.7302C66.4732 38.6764 65.4257 40.4907 63.7396 41.4642L53.7664 47.2282C52.796 47.789 52.458 49.0265 53.0089 50.003Z" fill="white"/>
<path d="M53.0091 50.0031L33.989 61.1016C33.4595 61.4106 32.8804 61.557 32.309 61.557C31.1585 61.557 30.0385 60.9627 29.4175 59.8969C28.4874 58.3008 29.0268 56.2538 30.6221 55.3238L49.6422 44.2253" fill="white"/>
<path d="M39.6201 50.0801V57.8194L51.3503 50.9827L44.6799 47.1306L39.6201 50.0801Z" fill="white"/>
<path d="M49.6605 55.7915L30.6312 44.7746C29.0329 43.85 28.4874 41.8045 29.412 40.2062C30.336 38.6078 32.3822 38.0623 33.9798 38.9862L53.009 50.0031" fill="white"/>
</svg>
